<svg xmlns="http://www.w3.org/2000/svg" viewBox="0 0 48 48" role="img" aria-label="Google">
  <path d="M24 19v10h13.5c-.6 3.5-4 10.5-13.5 10.5-8.1 0-14.7-6.7-14.7-14.9S15.9 9.7 24 9.7c4.6 0 7.7 2 9.5 3.7l6.5-6.2C36 3.4 30.8 1 24 1 10.8 1 0 11.7 0 24s10.8 23 24 23c13.8 0 22.9-9.7 22.9-23 0-1.6-.2-2.8-.4-4H24z" fill="#4285F4"/>
  <path d="M45.6 19.8H24v8.4h12.4c-.6 3-2.3 5.5-4.7 7.2l7.2 5.6c4.2-3.8 6.7-9.5 6.7-16.2 0-1.7-.1-3.4-.3-5z" fill="#34A853"/>
  <path d="M10.2 28.5l-7.4 5.7C6.1 41.2 14 47 24 47c6.6 0 12.1-2.2 16.1-5.9l-7.2-5.6c-2 1.4-4.5 2.3-8.9 2.3-9.5 0-12.9-7-13.8-9.3z" fill="#FBBC05"/>
  <path d="M1.1 16.2l7.5 5.8C9.4 17.4 13.3 10 24 10c4.5 0 7.4 1.8 9.1 3.3l6.7-6.5C35.7 3.4 30.6 1 24 1 14.2 1 5.9 6.6 1.1 16.2z" fill="#EA4335"/>
</svg>
