<svg xmlns="http://www.w3.org/2000/svg" viewBox="0 0 1600 1000" role="img" aria-label="SubscList hero illustration">
  <defs>
    <linearGradient id="bg" x1="0" x2="1" y1="0" y2="1">
      <stop offset="0" stop-color="#ffffff"/>
      <stop offset="1" stop-color="#eef6ff"/>
    </linearGradient>
    <linearGradient id="screen" x1="0" x2="1" y1="0" y2="1">
      <stop offset="0" stop-color="#8b5cf6"/>
      <stop offset="0.5" stop-color="#6d7cff"/>
      <stop offset="1" stop-color="#38bdf8"/>
    </linearGradient>
    <linearGradient id="laptop" x1="0" x2="1" y1="0" y2="1">
      <stop offset="0" stop-color="#e5e7eb"/>
      <stop offset="1" stop-color="#9ca3af"/>
    </linearGradient>
    <linearGradient id="circle" x1="0" x2="1" y1="0" y2="1">
      <stop offset="0" stop-color="#a78bfa"/>
      <stop offset="1" stop-color="#38bdf8"/>
    </linearGradient>
  </defs>
  <rect width="1600" height="1000" fill="url(#bg)"/>
  <ellipse cx="300" cy="870" rx="420" ry="120" fill="#dbeafe" opacity="0.7"/>
  <ellipse cx="1210" cy="860" rx="360" ry="110" fill="#bae6fd" opacity="0.8"/>
  <circle cx="1310" cy="170" r="110" fill="url(#circle)" opacity="0.25"/>
  <circle cx="800" cy="210" r="24" fill="#8b5cf6" opacity="0.55"/>
  <circle cx="1480" cy="520" r="30" fill="#a855f7" opacity="0.45"/>
  <rect x="670" y="340" width="760" height="460" rx="26" fill="#111827" transform="rotate(6 1030 570)"/>
  <rect x="692" y="360" width="714" height="408" rx="18" fill="url(#screen)" transform="rotate(6 1030 570)"/>
  <rect x="640" y="800" width="860" height="28" rx="14" fill="url(#laptop)" transform="rotate(6 1030 570)"/>
  <rect x="620" y="812" width="900" height="16" rx="8" fill="#94a3b8" opacity="0.4" transform="rotate(6 1030 570)"/>
  <path d="M760 580c24 0 40-18 40-40s-16-40-40-40-40 18-40 40 16 40 40 40Zm28-49-28 20-16-12" fill="none" stroke="#f8fafc" stroke-width="16" stroke-linecap="round" stroke-linejoin="round"/>
  <text x="865" y="625" fill="#ffffff" font-family="system-ui, sans-serif" font-size="66" font-weight="800">サブスクリスト</text>
  <text x="850" y="690" fill="#ecfeff" font-family="system-ui, sans-serif" font-size="28" font-weight="600">サブスクリプション管理システム</text>
  <rect x="180" y="220" width="300" height="100" rx="28" fill="#ffffff" opacity="0.9"/>
  <rect x="182" y="226" width="46" height="46" rx="23" fill="#f472b6"/>
  <circle cx="198" cy="244" r="8" fill="#ffffff"/>
  <circle cx="212" cy="244" r="8" fill="#ffffff"/>
  <path d="M191 265c4-7 12-12 21-12s17 5 21 12" fill="none" stroke="#ffffff" stroke-width="6" stroke-linecap="round"/>
  <text x="250" y="258" fill="#1f2937" font-family="system-ui, sans-serif" font-size="26" font-weight="700">アクティブ契約数</text>
  <text x="248" y="300" fill="#111827" font-family="system-ui, sans-serif" font-size="40" font-weight="800">1,248</text>
  <text x="360" y="300" fill="#334155" font-family="system-ui, sans-serif" font-size="20" font-weight="700">件</text>
  <path d="M260 320C300 300 320 338 356 320s48-7 80 12" fill="none" stroke="#7c3aed" stroke-width="4" stroke-linecap="round"/>
  <rect x="1160" y="250" width="280" height="120" rx="30" fill="#ffffff" opacity="0.9"/>
  <rect x="1168" y="258" width="46" height="46" rx="23" fill="#fb7185"/>
  <text x="1230" y="280" fill="#1f2937" font-family="system-ui, sans-serif" font-size="26" font-weight="700">今月の売上</text>
  <text x="1230" y="334" fill="#111827" font-family="system-ui, sans-serif" font-size="40" font-weight="800">¥12,450,000</text>
  <path d="M1192 343c28-12 38-10 56 0 16 9 28 10 44 0s30-12 50 4 34 17 58-4" fill="none" stroke="#ec4899" stroke-width="4" stroke-linecap="round"/>
  <rect x="590" y="540" width="250" height="220" rx="34" fill="#ffffff" opacity="0.92"/>
  <text x="620" y="585" fill="#1f2937" font-family="system-ui, sans-serif" font-size="24" font-weight="700">ブランド別契約比率</text>
  <circle cx="680" cy="680" r="64" fill="none" stroke="#c4b5fd" stroke-width="28" stroke-dasharray="120 220"/>
  <circle cx="680" cy="680" r="64" fill="none" stroke="#34d399" stroke-width="28" stroke-dasharray="72 268" transform="rotate(120 680 680)"/>
  <circle cx="680" cy="680" r="64" fill="none" stroke="#f472b6" stroke-width="28" stroke-dasharray="48 292" transform="rotate(230 680 680)"/>
  <rect x="760" y="638" width="18" height="18" rx="9" fill="#818cf8"/>
  <rect x="760" y="672" width="18" height="18" rx="9" fill="#f472b6"/>
  <rect x="760" y="706" width="18" height="18" rx="9" fill="#f59e0b"/>
  <rect x="760" y="740" width="18" height="18" rx="9" fill="#34d399"/>
  <text x="790" y="652" fill="#475569" font-family="system-ui, sans-serif" font-size="20" font-weight="700">スタンダード</text>
  <text x="790" y="686" fill="#475569" font-family="system-ui, sans-serif" font-size="20" font-weight="700">プロフェッショナル</text>
  <text x="790" y="720" fill="#475569" font-family="system-ui, sans-serif" font-size="20" font-weight="700">ベーシック</text>
  <text x="790" y="754" fill="#475569" font-family="system-ui, sans-serif" font-size="20" font-weight="700">エンタープライズ</text>
</svg>
